<svg width="100" height="100" viewBox="0 0 100 100" fill="none" xmlns="http://www.w3.org/2000/svg">
<circle cx="50" cy="50" r="49.75" fill="white" stroke="#51BB51" stroke-width="0.5"/>
<g clip-path="url(#clip0)">
<path d="M73.9258 34.1826H65.1172V31.9088C65.1172 31.3155 64.6362 30.8346 64.043 30.8346H40.8398C40.2467 30.8346 39.7656 31.3155 39.7656 31.9088C39.7656 32.5021 40.2467 32.983 40.8398 32.983H62.9688V41.2186C62.9688 48.4533 59.1062 55.1772 52.8692 58.8358H32.248C26.011 55.1774 22.1484 48.4533 22.1484 41.2187V32.9831H29.3457C29.9389 32.9831 30.4199 32.5022 30.4199 31.9089C30.4199 31.3156 29.9389 30.8347 29.3457 30.8347H21.0742C20.481 30.8347 20 31.3156 20 31.9089V41.2187C20 45.2793 21.0914 49.2608 23.1563 52.7325C24.5488 55.074 26.3556 57.1417 28.4715 58.8359H21.0742C20.481 58.8359 20 59.3168 20 59.9101C20 63.8195 23.1804 67 27.0898 67H60.6055C64.5149 67 67.6953 63.8195 67.6953 59.9101C67.6953 59.3168 67.2143 58.8359 66.6211 58.8359H56.6457C58.5931 57.2766 60.2778 55.4003 61.6195 53.2858H64.6517C70.3578 53.2858 75 48.6435 75 42.9375V35.2568C75 34.6635 74.5191 34.1826 73.9258 34.1826ZM65.4292 60.9844C64.9375 63.1942 62.9613 64.8515 60.6055 64.8515H27.0898C24.734 64.8515 22.7579 63.1942 22.2661 60.9844H31.9602H53.1569H65.4292ZM65.1172 41.2187V40.6279H68.5547V42.9375C68.5547 45.0896 66.8038 46.8405 64.6517 46.8405H64.4078C64.8767 45.0136 65.1172 43.1249 65.1172 41.2187ZM72.8516 42.9375C72.8516 47.4589 69.1731 51.1373 64.6517 51.1373H62.8234C63.1664 50.4368 63.4728 49.7197 63.7405 48.9889H64.6517C67.9886 48.9889 70.7031 46.2742 70.7031 42.9375V39.5537C70.7031 38.9604 70.2221 38.4795 69.6289 38.4795H65.1172V36.331H72.8516V42.9375Z" fill="black"/>
<path d="M43.585 17.9451L43.0261 17.2433C42.2056 16.2133 42.2044 14.7735 43.0232 13.7421C43.3921 13.2774 43.3143 12.6017 42.8496 12.2329C42.3848 11.8639 41.7092 11.9418 41.3403 12.4065C39.8963 14.2258 39.8985 16.7651 41.3456 18.5819L41.9045 19.2836C42.9767 20.6296 42.9783 22.5111 41.9083 23.8592L41.3356 24.5808C40.9667 25.0455 41.0445 25.7212 41.5092 26.09C41.7067 26.2467 41.9423 26.3229 42.1763 26.3229C42.4927 26.3229 42.8063 26.1837 43.0184 25.9164L43.5912 25.1947C45.2863 23.059 45.2839 20.0778 43.585 17.9451Z" fill="black"/>
<path d="M49.5391 20.3603L48.9802 19.6586C48.1597 18.6286 48.1585 17.1888 48.9773 16.1573C49.3462 15.6926 49.2684 15.0169 48.8037 14.6481C48.3389 14.2792 47.6633 14.357 47.2944 14.8217C45.8504 16.641 45.8526 19.1804 47.2997 20.9972L47.8586 21.699C48.9307 23.0451 48.9323 24.9267 47.8623 26.2746L47.2897 26.9962C46.9208 27.4609 46.9986 28.1366 47.4633 28.5053C47.6608 28.6621 47.8964 28.7381 48.1304 28.7381C48.4468 28.7381 48.7605 28.5988 48.9726 28.3316L49.5451 27.6101C51.2403 25.4744 51.2379 22.4933 49.5391 20.3603Z" fill="black"/>
<path d="M37.6299 20.3604L37.071 19.6587C36.2505 18.6288 36.2493 17.1889 37.068 16.1574C37.4369 15.6927 37.3591 15.017 36.8944 14.6482C36.4296 14.2793 35.754 14.3573 35.3851 14.8218C33.9413 16.641 33.9434 19.1805 35.3905 20.9972L35.9494 21.699C37.0215 23.0451 37.0231 24.9267 35.9533 26.2745L35.3805 26.9961C35.0116 27.4608 35.0893 28.1365 35.554 28.5054C35.7515 28.6621 35.987 28.7383 36.2211 28.7383C36.5375 28.7383 36.8511 28.599 37.0632 28.3319L37.636 27.6102C39.3312 25.4746 39.3287 22.4934 37.6299 20.3604Z" fill="black"/>
<path d="M36.1433 31.149C35.9435 30.9492 35.6663 30.8343 35.3838 30.8343C35.1013 30.8343 34.8241 30.9492 34.6243 31.149C34.4246 31.3499 34.3096 31.626 34.3096 31.9085C34.3096 32.191 34.4245 32.4682 34.6243 32.6691C34.8241 32.8689 35.1013 32.9827 35.3838 32.9827C35.6663 32.9827 35.9435 32.8689 36.1433 32.6691C36.344 32.4682 36.458 32.1921 36.458 31.9085C36.458 31.626 36.344 31.3488 36.1433 31.149Z" fill="black"/>
<path d="M58.8873 40.1445C58.2941 40.1445 57.8131 40.6255 57.8131 41.2187C57.8131 45.2061 56.1957 49.1248 53.3757 51.9699C52.958 52.3912 52.9612 53.0714 53.3825 53.489C53.5919 53.6967 53.8653 53.8003 54.1387 53.8003C54.4152 53.8002 54.6917 53.6941 54.9017 53.4821C58.1173 50.238 59.9615 45.7682 59.9615 41.2187C59.9615 40.6255 59.4805 40.1445 58.8873 40.1445Z" fill="black"/>
<path d="M51.5697 54.8855C51.2782 54.3687 50.623 54.1862 50.1063 54.4776L50.0818 54.4915C49.565 54.783 49.3825 55.4382 49.6739 55.9549C49.8714 56.3048 50.2354 56.5015 50.6105 56.5015C50.7893 56.5015 50.9706 56.4567 51.1373 56.3627L51.1618 56.3489C51.6786 56.0573 51.8611 55.4022 51.5697 54.8855Z" fill="black"/>
</g>
<g clip-path="url(#clip1)">
<path d="M61.6543 35.6677C60.5591 32.0909 60.4177 21.7258 64.1565 20.7754C67.7933 19.8512 74.8647 28.0335 75.9599 31.6103C77.0249 35.0876 73.9201 37.011 70.4931 37.882C67.0665 38.7529 62.7189 39.1454 61.6543 35.6677Z" fill="#FCCD7F"/>
<path d="M74.1426 43.4268C70.0165 44.1077 59.9667 41.7615 58.9609 37.0728C57.9827 32.512 66.3293 26.9176 70.4554 26.2367C74.467 25.5747 76.6028 29.6722 77.5247 33.9696C78.4462 38.267 78.1546 42.7652 74.1426 43.4268Z" fill="#EAB765"/>
<path d="M77.5243 33.9696C76.8332 30.7484 75.4602 27.6394 73.1263 26.5632C73.9513 27.9401 74.5295 29.6599 74.9055 31.4133C75.8274 35.7107 75.5353 40.2085 71.5238 40.8705C68.654 41.3436 62.9196 40.3527 59.3545 38.1277C61.4992 42.1093 70.3384 44.0544 74.1422 43.4268C78.1542 42.7652 78.4462 38.267 77.5243 33.9696Z" fill="#D9AB5E"/>
<path d="M71.1481 57.8304C65.5726 56.2281 54.4536 47.5247 56.0796 41.3133C57.6616 35.2715 71.5346 33.4559 77.1104 35.0581C82.5315 36.6157 82.6813 42.7804 81.1908 48.4731C79.7003 54.1663 76.5696 59.3883 71.1481 57.8304Z" fill="#FCCD7F"/>
<path d="M78.3674 35.546C79.8214 38.2527 79.5495 42.1859 78.5726 45.9168C77.0821 51.6099 73.951 56.8316 68.5299 55.2736C66.0836 54.5706 62.5701 52.5006 59.5342 49.8738C62.9289 53.6554 67.9504 56.9115 71.1483 57.8304C76.5698 59.3879 79.7006 54.1663 81.191 48.4731C82.5565 43.2589 82.5447 37.6497 78.3674 35.546Z" fill="#FBC56D"/>
<path d="M42.3279 54.5358C38.6642 53.4666 28.0475 53.3285 27.074 56.9787C26.1273 60.5293 34.5084 67.433 38.172 68.5023C41.7337 69.542 43.7038 66.5109 44.596 63.1651C45.4881 59.8197 45.8901 55.5751 42.3279 54.5358Z" fill="#FCCD7F"/>
<path d="M50.2757 66.7275C50.9731 62.6993 48.5699 52.8877 43.7674 51.9057C39.0958 50.9508 33.3655 59.0995 32.6681 63.1278C31.99 67.0442 36.187 69.1294 40.5888 70.0295C44.9906 70.9291 49.598 70.6444 50.2757 66.7275Z" fill="#EAB765"/>
<path d="M44.8473 52.29C47.1263 55.7706 48.1413 61.3695 47.6567 64.1712C46.9786 68.0877 42.3716 68.3728 37.9698 67.4727C36.1738 67.1057 34.4127 66.5412 33.002 65.7357C34.1047 68.0143 37.2888 69.3548 40.5882 70.0295C44.9904 70.9291 49.5974 70.644 50.2751 66.7276C50.9179 63.0139 48.9256 54.3842 44.8473 52.29Z" fill="#D9AB5E"/>
<path d="M65.0287 63.8046C63.3876 58.3613 54.4728 47.5059 48.1106 49.0934C41.9221 50.6378 40.0623 64.1819 41.7035 69.6256C43.2989 74.9181 49.6132 75.0644 55.4442 73.6092C61.2757 72.1541 66.6245 69.0975 65.0287 63.8046Z" fill="#FCCD7F"/>
<path d="M65.0286 63.8046C64.0874 60.6821 60.7523 55.78 56.8788 52.4658C59.5694 55.4297 61.6901 58.8599 62.4102 61.2482C64.0056 66.5408 58.6571 69.5977 52.8257 71.0528C49.0043 72.0066 44.9755 72.272 42.2031 70.8525C44.3579 74.9308 50.1033 74.9422 55.4441 73.6092C61.2756 72.154 66.6244 69.0975 65.0286 63.8046Z" fill="#FBC56D"/>
<path d="M58.122 69.5346C53.1873 64.7169 44.9045 51.2695 51.5663 44.766C57.6172 38.8586 72.0822 46.2699 77.0169 51.0876C81.8152 55.7722 78.2493 62.0881 73.8194 66.4129C69.3895 70.7378 62.9203 74.2192 58.122 69.5346Z" fill="#EAB765"/>
<path d="M77.0168 51.0876C76.5514 50.6333 76.0013 50.1561 75.3811 49.6685C78.6281 54.1999 75.2813 59.873 71.2009 63.8566C67.0983 67.8619 61.2463 71.1426 56.5928 67.8845C57.1232 68.5072 57.6389 69.0627 58.1219 69.5346C62.9202 74.2192 69.3894 70.7378 73.8193 66.4129C78.2492 62.0881 81.8151 55.7722 77.0168 51.0876Z" fill="#D9AB5E"/>
</g>
<path d="M19.3425 75.464C18.4572 75.464 17.7425 75.6827 17.1985 76.12C16.8678 75.9493 16.6758 75.8107 16.6225 75.704C16.6225 75.064 16.7825 74.4987 17.1025 74.008C17.4225 73.5067 17.8918 73.256 18.5105 73.256C19.1505 73.256 20.1638 73.608 21.5505 74.312C22.0625 74.5787 22.3985 74.7333 22.5585 74.776C22.9745 74.4453 23.4332 74.1733 23.9345 73.96C24.4465 73.7467 24.8892 73.64 25.2625 73.64C25.6465 73.64 25.9985 73.752 26.3185 73.976C26.6385 74.2 26.7985 74.536 26.7985 74.984C26.7985 75.432 26.6172 75.8267 26.2545 76.168C25.9025 76.5093 25.4065 76.68 24.7665 76.68C24.4785 76.68 24.1585 76.6373 23.8065 76.552C23.4652 76.456 23.2572 76.4027 23.1825 76.392C22.8518 76.7227 22.4838 77.1813 22.0785 77.768C21.6838 78.344 21.3478 78.9467 21.0705 79.576C21.2412 79.5547 21.3692 79.544 21.4545 79.544C22.2758 79.544 23.0065 79.784 23.6465 80.264C24.2972 80.7333 24.6225 81.384 24.6225 82.216C24.6225 83.048 24.3132 83.7787 23.6945 84.408C23.0865 85.0373 22.2598 85.352 21.2145 85.352C20.1692 85.352 19.3638 85.0053 18.7985 84.312C18.2438 83.6187 17.9665 82.808 17.9665 81.88C17.2945 82.5093 16.8625 83.1973 16.6705 83.944C16.4252 83.9013 16.1905 83.8267 15.9665 83.72C15.7425 83.6027 15.5985 83.4907 15.5345 83.384C15.9505 82.328 16.8358 81.336 18.1905 80.408C18.4465 79.576 18.8572 78.7547 19.4225 77.944C19.9985 77.1333 20.6118 76.4133 21.2625 75.784C20.5905 75.5707 19.9505 75.464 19.3425 75.464ZM23.5185 82.168C23.5185 81.7093 23.3212 81.336 22.9265 81.048C22.5318 80.7493 22.1265 80.6 21.7105 80.6C21.2945 80.6 20.9425 80.6587 20.6545 80.776C20.5478 81.1387 20.4945 81.576 20.4945 82.088C20.4945 82.5893 20.6332 83.0267 20.9105 83.4C21.1985 83.7627 21.5612 83.944 21.9985 83.944C22.4465 83.944 22.8092 83.7627 23.0865 83.4C23.3745 83.0267 23.5185 82.616 23.5185 82.168ZM25.7905 75.096C25.7905 74.8933 25.6358 74.792 25.3265 74.792C25.0278 74.792 24.6225 75.016 24.1105 75.464C24.3025 75.5707 24.5372 75.624 24.8145 75.624C25.0918 75.624 25.3212 75.576 25.5025 75.48C25.6945 75.384 25.7905 75.256 25.7905 75.096ZM26.0566 82.232C26.0566 80.8987 26.4566 79.848 27.2566 79.08C28.0673 78.3013 28.9846 77.912 30.0086 77.912C30.638 77.912 31.1553 78.0667 31.5606 78.376C31.966 78.6853 32.1686 79.1013 32.1686 79.624C32.1686 80.136 32.0353 80.568 31.7686 80.92C31.5126 81.272 31.198 81.544 30.8246 81.736C30.0673 82.1093 29.374 82.344 28.7446 82.44L28.3606 82.488C28.4353 83.4907 28.846 83.992 29.5926 83.992C29.8486 83.992 30.1206 83.928 30.4086 83.8C30.6966 83.672 30.9206 83.544 31.0806 83.416L31.3206 83.224L31.7046 83.736C31.6193 83.8533 31.4486 84.008 31.1926 84.2C30.9366 84.392 30.6966 84.552 30.4726 84.68C29.854 85.0213 29.1766 85.192 28.4406 85.192C27.7046 85.192 27.1233 84.9307 26.6966 84.408C26.27 83.8853 26.0566 83.16 26.0566 82.232ZM28.3446 81.704C28.8886 81.608 29.3206 81.3787 29.6406 81.016C29.9606 80.6533 30.1206 80.184 30.1206 79.608C30.1206 79.032 29.95 78.744 29.6086 78.744C29.2033 78.744 28.8886 79.0907 28.6646 79.784C28.4513 80.4667 28.3446 81.1067 28.3446 81.704ZM37.2793 78.376C37.3006 78.3547 37.3593 78.216 37.4553 77.96C37.9566 77.96 38.6286 78.1093 39.4713 78.408C39.2046 79.2933 38.9913 80.2213 38.8313 81.192C38.6713 82.152 38.5913 82.84 38.5913 83.256C38.5913 83.6613 38.6339 83.864 38.7193 83.864C38.7833 83.864 39.0179 83.7627 39.4233 83.56L39.6153 83.464L39.9033 84.024C39.8073 84.1093 39.6793 84.216 39.5193 84.344C39.3699 84.472 39.0819 84.648 38.6553 84.872C38.2286 85.0853 37.8446 85.192 37.5033 85.192C36.8419 85.192 36.4579 84.8933 36.3513 84.296C35.6686 84.8933 35.0499 85.192 34.4953 85.192C33.9513 85.192 33.4873 84.9787 33.1033 84.552C32.7299 84.1253 32.5433 83.4533 32.5433 82.536C32.5433 81.1067 32.8366 79.9813 33.4233 79.16C34.0099 78.328 34.7193 77.912 35.5513 77.912C36.1486 77.912 36.7246 78.0667 37.2793 78.376ZM35.4553 83.832C35.7113 83.832 35.9993 83.7307 36.3193 83.528C36.3939 82.024 36.6446 80.536 37.0713 79.064C36.7513 78.9253 36.4793 78.856 36.2552 78.856C35.8713 78.856 35.5406 79.2347 35.2633 79.992C34.9966 80.7387 34.8633 81.5653 34.8633 82.472C34.8633 83.3787 35.0606 83.832 35.4553 83.832Z" fill="#EAB765"/>
<path d="M40.1028 83.688C40.1028 83.2293 40.2788 82.856 40.6308 82.568C40.9828 82.28 41.4041 82.136 41.8948 82.136C42.3854 82.136 42.8921 82.2533 43.4148 82.488C43.4681 82.36 43.5908 81.992 43.7828 81.384C43.9854 80.7653 44.1721 79.96 44.3428 78.968C44.5134 77.9653 44.5988 77.256 44.5988 76.84C44.5988 76.424 44.4814 76.1093 44.2468 75.896V75.736C44.8654 75.416 45.5908 75.256 46.4228 75.256L47.0948 75.32C47.1481 75.448 47.1748 75.6933 47.1748 76.056C47.1748 77.2507 46.9614 78.5147 46.5348 79.848C46.1081 81.1707 45.5534 82.3013 44.8708 83.24C45.6388 83.6453 46.2734 83.848 46.7748 83.848C47.2761 83.848 47.7241 83.624 48.1188 83.176C48.5241 82.7173 48.8388 82.152 49.0628 81.48C49.5428 80.0933 49.7828 78.84 49.7828 77.72C49.7828 76.5893 49.4841 75.752 48.8868 75.208C48.2894 74.664 47.3988 74.392 46.2148 74.392C45.0414 74.392 43.9534 74.728 42.9508 75.4C41.9588 76.072 41.4628 76.8507 41.4628 77.736C41.4628 78.1093 41.5534 78.3867 41.7348 78.568C41.9161 78.7493 42.1614 78.8933 42.4708 79C42.4601 79.4053 42.3428 79.816 42.1188 80.232C41.6814 80.1467 41.2868 79.9067 40.9348 79.512C40.5828 79.1067 40.4068 78.5573 40.4068 77.864C40.4068 76.584 41.0148 75.5227 42.2308 74.68C43.4468 73.8267 44.9668 73.4 46.7908 73.4C48.3268 73.4 49.6014 73.7573 50.6148 74.472C51.1268 74.8347 51.5214 75.336 51.7988 75.976C52.0868 76.6053 52.2308 77.416 52.2308 78.408C52.2308 79.3893 52.0121 80.4133 51.5748 81.48C51.1374 82.536 50.4974 83.4213 49.6548 84.136C48.8228 84.8507 47.9214 85.208 46.9508 85.208C45.9908 85.208 45.0094 84.872 44.0068 84.2C43.2921 84.8613 42.5668 85.192 41.8307 85.192C41.3294 85.192 40.9134 85.0587 40.5828 84.792C40.2628 84.5147 40.1028 84.1467 40.1028 83.688ZM41.7828 83.976C42.1774 83.976 42.5294 83.7947 42.8388 83.432C42.4441 83.208 42.1294 83.096 41.8948 83.096C41.4041 83.096 41.1588 83.24 41.1588 83.528C41.1588 83.656 41.2121 83.7627 41.3188 83.848C41.4254 83.9333 41.5801 83.976 41.7828 83.976ZM53.0813 85.048H52.9693C52.9479 84.9627 52.9373 84.7707 52.9373 84.472C52.9373 84.1627 53.0813 83.3413 53.3693 82.008C53.6573 80.6747 53.8013 79.912 53.8013 79.72C53.8013 79.3893 53.6519 79.0267 53.3533 78.632L53.2093 78.44L53.2253 78.232C53.8013 78.072 54.7239 77.992 55.9933 77.992C56.1213 78.2693 56.1853 78.6587 56.1853 79.16C56.3026 78.968 56.5479 78.712 56.9213 78.392C57.2946 78.072 57.6786 77.912 58.0733 77.912C58.6493 77.912 58.9373 78.4133 58.9373 79.416C58.8839 79.48 58.8093 79.5653 58.7133 79.672C58.6279 79.768 58.4466 79.9067 58.1693 80.088C57.9026 80.2693 57.6413 80.3813 57.3853 80.424C57.3746 80.424 57.2839 80.28 57.1133 79.992C56.9426 79.704 56.8146 79.56 56.7293 79.56C56.4626 79.656 56.2279 79.816 56.0253 80.04C55.5346 82.248 55.2893 83.6773 55.2893 84.328C55.2893 84.5627 55.2946 84.728 55.3053 84.824C54.9319 84.9733 54.1906 85.048 53.0813 85.048ZM58.5254 82.232C58.5254 80.8987 58.9254 79.848 59.7254 79.08C60.536 78.3013 61.4534 77.912 62.4774 77.912C63.1067 77.912 63.624 78.0667 64.0294 78.376C64.4347 78.6853 64.6374 79.1013 64.6374 79.624C64.6374 80.136 64.504 80.568 64.2374 80.92C63.9814 81.272 63.6667 81.544 63.2934 81.736C62.536 82.1093 61.8427 82.344 61.2134 82.44L60.8294 82.488C60.904 83.4907 61.3147 83.992 62.0614 83.992C62.3174 83.992 62.5894 83.928 62.8774 83.8C63.1654 83.672 63.3894 83.544 63.5494 83.416L63.7894 83.224L64.1734 83.736C64.088 83.8533 63.9174 84.008 63.6614 84.2C63.4054 84.392 63.1654 84.552 62.9414 84.68C62.3227 85.0213 61.6454 85.192 60.9094 85.192C60.1734 85.192 59.592 84.9307 59.1654 84.408C58.7387 83.8853 58.5254 83.16 58.5254 82.232ZM60.8134 81.704C61.3574 81.608 61.7894 81.3787 62.1094 81.016C62.4294 80.6533 62.5894 80.184 62.5894 79.608C62.5894 79.032 62.4187 78.744 62.0774 78.744C61.672 78.744 61.3574 79.0907 61.1334 79.784C60.92 80.4667 60.8134 81.1067 60.8134 81.704ZM69.748 78.376C69.7693 78.3547 69.828 78.216 69.924 77.96C70.4253 77.96 71.0973 78.1093 71.94 78.408C71.6733 79.2933 71.46 80.2213 71.3 81.192C71.14 82.152 71.06 82.84 71.06 83.256C71.06 83.6613 71.1027 83.864 71.188 83.864C71.252 83.864 71.4867 83.7627 71.892 83.56L72.084 83.464L72.372 84.024C72.276 84.1093 72.148 84.216 71.988 84.344C71.8387 84.472 71.5507 84.648 71.124 84.872C70.6973 85.0853 70.3133 85.192 69.972 85.192C69.3107 85.192 68.9267 84.8933 68.82 84.296C68.1373 84.8933 67.5187 85.192 66.964 85.192C66.42 85.192 65.956 84.9787 65.572 84.552C65.1987 84.1253 65.012 83.4533 65.012 82.536C65.012 81.1067 65.3053 79.9813 65.892 79.16C66.4787 78.328 67.188 77.912 68.02 77.912C68.6173 77.912 69.1933 78.0667 69.748 78.376ZM67.924 83.832C68.18 83.832 68.468 83.7307 68.788 83.528C68.8627 82.024 69.1133 80.536 69.54 79.064C69.22 78.9253 68.948 78.856 68.724 78.856C68.34 78.856 68.0093 79.2347 67.732 79.992C67.4653 80.7387 67.332 81.5653 67.332 82.472C67.332 83.3787 67.5293 83.832 67.924 83.832ZM73.0995 85.048H72.7955C72.7955 84.5467 72.9448 83.5867 73.2435 82.168C73.5528 80.7493 73.7075 79.944 73.7075 79.752C73.7075 79.4 73.5582 79.0267 73.2595 78.632L73.1155 78.44L73.1315 78.232C73.7075 78.072 74.6302 77.992 75.8995 77.992C76.0488 78.1947 76.1235 78.5253 76.1235 78.984C77.0835 78.2693 77.8462 77.912 78.4115 77.912C79.1262 77.912 79.5475 78.28 79.6755 79.016C79.9635 78.7813 80.3368 78.5413 80.7955 78.296C81.2648 78.04 81.6808 77.912 82.0435 77.912C82.4168 77.912 82.7262 78.0347 82.9715 78.28C83.2168 78.5147 83.3395 78.8453 83.3395 79.272C83.3395 79.6987 83.2222 80.4027 82.9875 81.384C82.7528 82.3653 82.6355 83.0267 82.6355 83.368C82.6355 83.6987 82.6835 83.864 82.7795 83.864C82.8435 83.864 83.0622 83.7627 83.4355 83.56L83.6115 83.464L83.8995 84.024C83.6222 84.3013 83.2435 84.568 82.7635 84.824C82.2942 85.0693 81.8782 85.192 81.5155 85.192C80.7155 85.192 80.3155 84.7387 80.3155 83.832C80.3155 83.5013 80.4275 82.84 80.6515 81.848C80.8862 80.8453 81.0035 80.1947 81.0035 79.896C81.0035 79.5867 80.9128 79.432 80.7315 79.432C80.4222 79.432 80.0702 79.5493 79.6755 79.784C79.6542 79.9973 79.5048 80.7227 79.2275 81.96C78.9608 83.1973 78.8275 84.1573 78.8275 84.84C78.5182 84.9787 77.7928 85.048 76.6515 85.048C76.6302 84.9307 76.6195 84.648 76.6195 84.2C76.6195 83.752 76.7422 82.9893 76.9875 81.912C77.2435 80.8347 77.3715 80.152 77.3715 79.864C77.3715 79.576 77.2702 79.432 77.0675 79.432C76.7475 79.432 76.3955 79.56 76.0115 79.816C75.9902 79.912 75.8835 80.3813 75.6915 81.224C75.3075 82.9093 75.1155 84.1093 75.1155 84.824C74.7422 84.9733 74.0702 85.048 73.0995 85.048Z" fill="black"/>
<defs>
<clipPath id="clip0">
<rect x="20" y="12" width="55" height="55" fill="white"/>
</clipPath>
<clipPath id="clip1">
<rect x="27" y="20.7033" width="55" height="53.6961" fill="white"/>
</clipPath>
</defs>
</svg>
