<svg width="25" height="21" viewBox="0 0 25 21" fill="none" xmlns="http://www.w3.org/2000/svg">
<path d="M24.6024 2.52989C24.0469 2.77036 23.4703 2.96007 22.8787 3.09741C23.5306 2.49258 24.0208 1.73606 24.2973 0.891644C24.3763 0.650579 24.1081 0.442123 23.8851 0.571195C23.062 1.04785 22.1754 1.40543 21.2498 1.63412C21.1961 1.64739 21.1407 1.65412 21.0851 1.65412C20.9165 1.65412 20.7526 1.593 20.6237 1.48208C19.639 0.63475 18.3724 0.168091 17.0575 0.168091C16.4885 0.168091 15.914 0.254674 15.35 0.425461C13.6023 0.954663 12.2539 2.36208 11.8308 4.09851C11.6721 4.74982 11.6291 5.40173 11.703 6.03608C11.7115 6.10898 11.6762 6.15985 11.6544 6.18372C11.6162 6.22555 11.562 6.24953 11.5058 6.24953C11.4995 6.24953 11.493 6.24924 11.4866 6.24864C7.66111 5.90165 4.21144 4.10232 1.77303 1.18216C1.64868 1.03321 1.41024 1.05148 1.31113 1.21745C0.833627 2.01723 0.581283 2.93198 0.581283 3.8628C0.581283 5.28932 1.16832 6.63365 2.18799 7.61369C1.75919 7.51443 1.34417 7.3581 0.958641 7.14905C0.772126 7.04789 0.542639 7.17791 0.540018 7.38619C0.513321 9.50537 1.78418 11.3911 3.68798 12.2402C3.64964 12.2411 3.6113 12.2415 3.5729 12.2415C3.27112 12.2415 2.96557 12.213 2.66483 12.1569C2.45478 12.1178 2.27833 12.3123 2.34354 12.5111C2.96148 14.3946 4.62256 15.7829 6.61035 16.0981C4.9606 17.1793 3.03944 17.7496 1.03989 17.7496L0.416529 17.7493C0.224467 17.7493 0.0620284 17.8715 0.0130835 18.0531C-0.03513 18.232 0.0536779 18.4207 0.217457 18.5137C2.47063 19.7939 5.0407 20.4705 7.65093 20.4705C9.93574 20.4705 12.073 20.0278 14.0033 19.1548C15.773 18.3545 17.3368 17.2105 18.6513 15.7545C19.8758 14.3982 20.8334 12.8325 21.4973 11.101C22.1302 9.45039 22.4647 7.6892 22.4647 6.00775V5.92766C22.4646 5.65767 22.5897 5.40363 22.8079 5.2307C23.6359 4.57433 24.357 3.80169 24.951 2.93424C25.1078 2.7052 24.8605 2.41813 24.6024 2.52989Z" fill="#76A9EA"/>
</svg>
